<?xml version="1.0" encoding="UTF-8"?>
<svg id="Layer_1" data-name="Layer 1" xmlns="http://www.w3.org/2000/svg" xmlns:xlink="http://www.w3.org/1999/xlink" viewBox="0 0 2685.91 730.6">
  <defs>
    <style>
      .cls-1 {
        clip-path: url(#clippath-34);
      }

      .cls-2 {
        clip-path: url(#clippath-38);
      }

      .cls-3 {
        clip-path: url(#clippath-21);
      }

      .cls-4 {
        opacity: .75;
      }

      .cls-5 {
        clip-path: url(#clippath-6);
      }

      .cls-6 {
        clip-path: url(#clippath-7);
      }

      .cls-7 {
        clip-path: url(#clippath-17);
      }

      .cls-8 {
        clip-path: url(#clippath-31);
      }

      .cls-9 {
        mask: url(#mask-5);
      }

      .cls-10 {
        clip-path: url(#clippath-15);
      }

      .cls-11 {
        clip-path: url(#clippath-33);
      }

      .cls-12 {
        clip-path: url(#clippath-18);
      }

      .cls-13 {
        clip-path: url(#clippath-4);
      }

      .cls-14 {
        fill: url(#linear-gradient-2);
      }

      .cls-15 {
        clip-path: url(#clippath-22);
      }

      .cls-16 {
        mask: url(#mask-1);
      }

      .cls-17 {
        clip-path: url(#clippath-23);
      }

      .cls-18 {
        fill: url(#linear-gradient-10);
      }

      .cls-19 {
        clip-path: url(#clippath-9);
      }

      .cls-20 {
        clip-path: url(#clippath-10);
      }

      .cls-21 {
        mask: url(#mask);
      }

      .cls-22 {
        clip-path: url(#clippath-25);
      }

      .cls-23 {
        clip-path: url(#clippath-27);
      }

      .cls-24 {
        clip-path: url(#clippath-11);
      }

      .cls-25 {
        fill: none;
      }

      .cls-26 {
        fill: url(#linear-gradient-4);
      }

      .cls-27 {
        clip-path: url(#clippath-36);
      }

      .cls-28 {
        clip-path: url(#clippath-35);
      }

      .cls-29 {
        fill: url(#radial-gradient);
      }

      .cls-30 {
        clip-path: url(#clippath-28);
      }

      .cls-31 {
        mask: url(#mask-2);
      }

      .cls-32 {
        fill: url(#linear-gradient-3);
      }

      .cls-33 {
        fill: #3b0287;
      }

      .cls-34 {
        clip-path: url(#clippath-1);
      }

      .cls-35 {
        fill: url(#linear-gradient-5);
      }

      .cls-36 {
        fill: #231f20;
      }

      .cls-37 {
        isolation: isolate;
      }

      .cls-38 {
        clip-path: url(#clippath-5);
      }

      .cls-39 {
        clip-path: url(#clippath-20);
      }

      .cls-40 {
        clip-path: url(#clippath-8);
      }

      .cls-41 {
        fill: url(#linear-gradient-8);
      }

      .cls-42 {
        fill: #666;
      }

      .cls-43 {
        clip-path: url(#clippath-3);
      }

      .cls-44 {
        clip-path: url(#clippath-26);
      }

      .cls-45 {
        clip-path: url(#clippath-12);
      }

      .cls-46 {
        clip-path: url(#clippath-14);
      }

      .cls-47 {
        fill: url(#linear-gradient-7);
      }

      .cls-48 {
        clip-path: url(#clippath-30);
      }

      .cls-49 {
        clip-path: url(#clippath-19);
      }

      .cls-50 {
        fill: url(#linear-gradient-9);
      }

      .cls-51 {
        fill: url(#linear-gradient-11);
      }

      .cls-52 {
        clip-path: url(#clippath-32);
      }

      .cls-53 {
        fill: url(#linear-gradient-6);
      }

      .cls-54 {
        opacity: .6;
      }

      .cls-55 {
        clip-path: url(#clippath-16);
      }

      .cls-56 {
        clip-path: url(#clippath-2);
      }

      .cls-57 {
        mask: url(#mask-4);
      }

      .cls-58 {
        clip-path: url(#clippath-29);
      }

      .cls-59 {
        clip-path: url(#clippath-37);
      }

      .cls-60 {
        clip-path: url(#clippath-13);
      }

      .cls-61 {
        fill: #f9f;
      }

      .cls-62 {
        fill: url(#linear-gradient);
      }

      .cls-63 {
        clip-path: url(#clippath-24);
      }

      .cls-64 {
        clip-path: url(#clippath);
      }

      .cls-65 {
        opacity: .5;
      }

      .cls-66 {
        mask: url(#mask-3);
      }
    </style>
    <clipPath id="clippath">
      <rect class="cls-25" x="1183.05" y="417.44" width="1265.52" height="86.93"/>
    </clipPath>
    <clipPath id="clippath-1">
      <rect class="cls-25" x="-89.32" y="-119.23" width="2504.03" height="973.79"/>
    </clipPath>
    <clipPath id="clippath-2">
      <rect class="cls-25" x="392.13" y="20.6" width="288.45" height="642.37"/>
    </clipPath>
    <clipPath id="clippath-3">
      <rect class="cls-25" x="213.75" y="20.6" width="288.45" height="642.37"/>
    </clipPath>
    <clipPath id="clippath-4">
      <path class="cls-25" d="M447.17,662.97S541.35,225.41,126.98,78.69c-83.41,289.99,97.22,540.25,320.19,584.28"/>
    </clipPath>
    <linearGradient id="linear-gradient" x1="-2993.29" y1="1386.38" x2="-2992.33" y2="1386.38" gradientTransform="translate(2449331.56 1134924.99) scale(818.36 -818.36)" gradientUnits="userSpaceOnUse">
      <stop offset="0" stop-color="#0131b9"/>
      <stop offset=".5" stop-color="#5c00d4"/>
      <stop offset="1" stop-color="#fd7bfd"/>
    </linearGradient>
    <clipPath id="clippath-5">
      <rect class="cls-25" x="-89.32" y="-119.23" width="2504.03" height="973.79"/>
    </clipPath>
    <clipPath id="clippath-6">
      <rect class="cls-25" x="126.98" y="78.69" width="329.38" height="489.21"/>
    </clipPath>
    <clipPath id="clippath-7">
      <rect class="cls-25" x="126.98" y="78.69" width="329.38" height="489.21"/>
    </clipPath>
    <linearGradient id="linear-gradient-2" x1="-3002.51" y1="1401.3" x2="-3001.54" y2="1401.3" gradientTransform="translate(-628363.78 -293165.09) rotate(-180) scale(209.44 -209.44)" gradientUnits="userSpaceOnUse">
      <stop offset="0" stop-color="#fff"/>
      <stop offset="1" stop-color="#231f20"/>
    </linearGradient>
    <mask id="mask" x="-56.52" y="-44.86" width="696.38" height="736.31" maskUnits="userSpaceOnUse">
      <g class="cls-5">
        <rect x="126.98" y="78.69" width="331.59" height="489.21"/>
        <g class="cls-37">
          <g class="cls-6">
            <rect class="cls-14" x=".96" y="72.53" width="581.41" height="501.53" transform="translate(-123.02 456.05) rotate(-65.7)"/>
          </g>
        </g>
      </g>
    </mask>
    <clipPath id="clippath-8">
      <rect class="cls-25" x="126.98" y="78.69" width="329.38" height="489.21"/>
    </clipPath>
    <clipPath id="clippath-9">
      <rect class="cls-25" x="106.24" y="78.69" width="346.55" height="584.28"/>
    </clipPath>
    <clipPath id="clippath-10">
      <rect class="cls-25" x="106.24" y="78.69" width="346.55" height="584.28"/>
    </clipPath>
    <linearGradient id="linear-gradient-3" x1="-2992.57" y1="1386.25" x2="-2991.6" y2="1386.25" gradientTransform="translate(2189397.77 1014686.56) scale(731.7 -731.7)" gradientUnits="userSpaceOnUse">
      <stop offset="0" stop-color="#fff"/>
      <stop offset="1" stop-color="#231f20"/>
    </linearGradient>
    <mask id="mask-1" x="-81.62" y="-32.74" width="722.28" height="807.13" maskUnits="userSpaceOnUse">
      <g class="cls-19">
        <rect x="43.56" y="78.69" width="409.22" height="584.28"/>
        <g class="cls-37">
          <g class="cls-20">
            <rect class="cls-32" x="-54.28" y="108.05" width="667.6" height="525.56" transform="translate(-164.58 506.58) rotate(-69.99)"/>
          </g>
        </g>
      </g>
    </mask>
    <clipPath id="clippath-11">
      <rect class="cls-25" x="106.24" y="78.69" width="346.55" height="584.28"/>
    </clipPath>
    <clipPath id="clippath-12">
      <rect class="cls-25" x="265.27" y="166.05" width="191.09" height="496.93"/>
    </clipPath>
    <clipPath id="clippath-13">
      <rect class="cls-25" x="265.27" y="166.05" width="191.09" height="496.92"/>
    </clipPath>
    <linearGradient id="linear-gradient-4" x1="-2998.65" y1="1386.58" x2="-2997.69" y2="1386.58" gradientTransform="translate(793332.45 -1714286.98) rotate(-90) scale(571.89 -571.89)" gradientUnits="userSpaceOnUse">
      <stop offset="0" stop-color="#fff"/>
      <stop offset="1" stop-color="#231f20"/>
    </linearGradient>
    <mask id="mask-2" x="61.37" y="87.64" width="598.91" height="653.75" maskUnits="userSpaceOnUse">
      <g class="cls-45">
        <rect x="217.34" y="166.05" width="296.86" height="496.92"/>
        <g class="cls-37">
          <g class="cls-60">
            <rect class="cls-26" x="96.35" y="214.8" width="528.93" height="399.43" transform="translate(-173.64 542.45) rotate(-62.42)"/>
          </g>
        </g>
      </g>
    </mask>
    <clipPath id="clippath-14">
      <rect class="cls-25" x="265.27" y="166.05" width="191.09" height="496.93"/>
    </clipPath>
    <clipPath id="clippath-15">
      <path class="cls-25" d="M447.17,662.97c222.97-44.04,403.6-294.29,320.19-584.28-414.38,146.72-320.19,584.28-320.19,584.28"/>
    </clipPath>
    <linearGradient id="linear-gradient-5" x1="-2994.63" y1="1386.15" x2="-2993.67" y2="1386.15" gradientTransform="translate(1134979.75 -2449784.57) rotate(-90) scale(818.37 -818.37)" gradientUnits="userSpaceOnUse">
      <stop offset="0" stop-color="#0131b9"/>
      <stop offset=".5" stop-color="#5c00d4"/>
      <stop offset="1" stop-color="#fd7bfd"/>
    </linearGradient>
    <clipPath id="clippath-16">
      <rect class="cls-25" x="-89.32" y="-119.23" width="2504.03" height="973.79"/>
    </clipPath>
    <clipPath id="clippath-17">
      <rect class="cls-25" x="437.98" y="78.69" width="329.38" height="489.21"/>
    </clipPath>
    <clipPath id="clippath-18">
      <rect class="cls-25" x="437.98" y="78.69" width="329.38" height="489.21"/>
    </clipPath>
    <linearGradient id="linear-gradient-6" x1="-2991.16" y1="1403.28" x2="-2990.2" y2="1403.28" gradientTransform="translate(-293300.89 626602.79) rotate(90) scale(209.44 -209.44)" gradientUnits="userSpaceOnUse">
      <stop offset="0" stop-color="#fff"/>
      <stop offset="1" stop-color="#231f20"/>
    </linearGradient>
    <mask id="mask-3" x="254.48" y="-44.86" width="696.38" height="736.31" maskUnits="userSpaceOnUse">
      <g class="cls-7">
        <rect x="435.77" y="78.69" width="331.59" height="489.21"/>
        <g class="cls-37">
          <g class="cls-12">
            <rect class="cls-53" x="351.9" y="32.59" width="501.53" height="581.41" transform="translate(-79.65 276.69) rotate(-24.3)"/>
          </g>
        </g>
      </g>
    </mask>
    <clipPath id="clippath-19">
      <rect class="cls-25" x="437.98" y="78.69" width="329.38" height="489.21"/>
    </clipPath>
    <clipPath id="clippath-20">
      <rect class="cls-25" x="441.55" y="78.69" width="346.55" height="584.28"/>
    </clipPath>
    <clipPath id="clippath-21">
      <rect class="cls-25" x="441.55" y="78.69" width="346.55" height="584.28"/>
    </clipPath>
    <linearGradient id="linear-gradient-7" x1="-2995.27" y1="1385.79" x2="-2994.3" y2="1385.79" gradientTransform="translate(1014587.12 -2190722.24) rotate(-90) scale(731.7 -731.7)" gradientUnits="userSpaceOnUse">
      <stop offset="0" stop-color="#fff"/>
      <stop offset="1" stop-color="#231f20"/>
    </linearGradient>
    <mask id="mask-4" x="253.68" y="-32.74" width="722.28" height="807.13" maskUnits="userSpaceOnUse">
      <g class="cls-39">
        <rect x="441.55" y="78.69" width="409.22" height="584.28"/>
        <g class="cls-37">
          <g class="cls-3">
            <rect class="cls-47" x="352.04" y="37.03" width="525.56" height="667.6" transform="translate(-89.78 232.77) rotate(-20.01)"/>
          </g>
        </g>
      </g>
    </mask>
    <clipPath id="clippath-22">
      <rect class="cls-25" x="441.55" y="78.69" width="346.55" height="584.28"/>
    </clipPath>
    <clipPath id="clippath-23">
      <rect class="cls-25" x="437.97" y="166.05" width="191.09" height="496.93"/>
    </clipPath>
    <clipPath id="clippath-24">
      <rect class="cls-25" x="437.97" y="166.05" width="191.09" height="496.92"/>
    </clipPath>
    <linearGradient id="linear-gradient-8" x1="-2989.71" y1="1388.2" x2="-2988.74" y2="1388.2" gradientTransform="translate(1710051.33 794279.39) scale(571.87 -571.87)" gradientUnits="userSpaceOnUse">
      <stop offset="0" stop-color="#fff"/>
      <stop offset="1" stop-color="#231f20"/>
    </linearGradient>
    <mask id="mask-5" x="234.06" y="87.63" width="598.92" height="653.76" maskUnits="userSpaceOnUse">
      <g class="cls-17">
        <rect x="380.13" y="166.05" width="296.86" height="496.92"/>
        <g class="cls-37">
          <g class="cls-63">
            <rect class="cls-41" x="333.8" y="150.04" width="399.43" height="528.93" transform="translate(-131.28 294.08) rotate(-27.58)"/>
          </g>
        </g>
      </g>
    </mask>
    <clipPath id="clippath-25">
      <rect class="cls-25" x="437.97" y="166.05" width="191.09" height="496.93"/>
    </clipPath>
    <clipPath id="clippath-26">
      <rect class="cls-25" x="447.17" y="308.61" width="432.93" height="359.99"/>
    </clipPath>
    <clipPath id="clippath-27">
      <path class="cls-25" d="M447.17,662.97c101.63,83,279.44,71.28,377.77-72.53-52.95-31.7-102.48-43.7-147.13-43.7-138.97,0-230.64,116.23-230.64,116.23"/>
    </clipPath>
    <clipPath id="clippath-28">
      <rect class="cls-25" x="441.21" y="457.57" width="377.77" height="285.91"/>
    </clipPath>
    <clipPath id="clippath-29">
      <rect class="cls-25" x="441.21" y="457.57" width="377.77" height="285.91"/>
    </clipPath>
    <linearGradient id="linear-gradient-9" x1="-2990.52" y1="1388.21" x2="-2989.55" y2="1388.21" gradientTransform="translate(2014933.94 935793.33) scale(673.67 -673.67)" gradientUnits="userSpaceOnUse">
      <stop offset="0" stop-color="#395d2e"/>
      <stop offset=".47" stop-color="#71b544"/>
      <stop offset="1" stop-color="#eaea7c"/>
    </linearGradient>
    <clipPath id="clippath-30">
      <rect class="cls-25" x="-89.32" y="-119.23" width="2504.03" height="973.79"/>
    </clipPath>
    <clipPath id="clippath-31">
      <rect class="cls-25" x="14.24" y="308.61" width="432.93" height="359.99"/>
    </clipPath>
    <clipPath id="clippath-32">
      <path class="cls-25" d="M447.17,662.97c141.13-133.83,250.08-567.82,0-567.82s-141.13,433.99,0,567.82"/>
    </clipPath>
    <clipPath id="clippath-33">
      <rect class="cls-25" x="195.41" y="130.6" width="500.15" height="567.82"/>
    </clipPath>
    <clipPath id="clippath-34">
      <rect class="cls-25" x="195.41" y="130.6" width="500.15" height="567.82"/>
    </clipPath>
    <linearGradient id="linear-gradient-10" x1="-2995.19" y1="1393.01" x2="-2994.22" y2="1393.01" gradientTransform="translate(-1224605.01 2634151.23) rotate(90) scale(879.43 -879.43)" gradientUnits="userSpaceOnUse">
      <stop offset="0" stop-color="#5e2e8a"/>
      <stop offset=".47" stop-color="#853d93"/>
      <stop offset="1" stop-color="#d08bb9"/>
    </linearGradient>
    <clipPath id="clippath-35">
      <path class="cls-25" d="M312.62,185.65v4.13c82.39,78.76,108.33,181.69,134.54,259.78,21.69-104.33,71.04-204.19,136.48-261.28-19.88-55.95-62.31-93.13-135.51-93.13s-115.14,36.25-135.51,90.5"/>
    </clipPath>
    <radialGradient id="radial-gradient" cx="-2976.94" cy="1392.86" fx="-2976.94" fy="1392.86" r=".97" gradientTransform="translate(486914.93 227821.19) scale(163.43 -163.43)" gradientUnits="userSpaceOnUse">
      <stop offset="0" stop-color="#d08bb9"/>
      <stop offset=".08" stop-color="#d08bb9"/>
      <stop offset=".09" stop-color="#cc87b7"/>
      <stop offset=".24" stop-color="#a55ea3"/>
      <stop offset=".35" stop-color="#8d4697"/>
      <stop offset=".42" stop-color="#853d93"/>
      <stop offset=".62" stop-color="#6f348e"/>
      <stop offset=".82" stop-color="#622f8b"/>
      <stop offset="1" stop-color="#5e2e8a"/>
    </radialGradient>
    <clipPath id="clippath-36">
      <path class="cls-25" d="M69.39,590.44c98.33,143.82,276.14,155.53,377.77,72.53,0,0-91.67-116.23-230.64-116.23-44.65,0-94.18,12-147.13,43.7"/>
    </clipPath>
    <clipPath id="clippath-37">
      <rect class="cls-25" x="69.39" y="460.06" width="377.77" height="285.91"/>
    </clipPath>
    <clipPath id="clippath-38">
      <rect class="cls-25" x="69.39" y="460.06" width="377.77" height="285.91"/>
    </clipPath>
    <linearGradient id="linear-gradient-11" x1="-2997.88" y1="1386.86" x2="-2996.92" y2="1386.86" gradientTransform="translate(934540.83 -2018661.34) rotate(-90) scale(673.67 -673.67)" gradientUnits="userSpaceOnUse">
      <stop offset="0" stop-color="#395d2e"/>
      <stop offset=".47" stop-color="#71b544"/>
      <stop offset="1" stop-color="#eaea7c"/>
    </linearGradient>
  </defs>
  <g>
    <g>
      <path class="cls-36" d="M973.13,288.87c-11.72,0-21.31-9.59-21.31-21.31s9.59-21.31,21.31-21.31,21.31,9.59,21.31,21.31-9.59,21.31-21.31,21.31ZM955.66,408.62v-110.17h34.94v110.17h-34.94Z"/>
      <g>
        <path class="cls-36" d="M1155.31,408.62h-30.47l-24.5-74.79-24.5,74.79h-30.26l-41.76-151.72h38.99l19.82,80.12,24.5-80.12h26.42l24.5,80.12,19.82-80.12h38.99l-41.55,151.72Z"/>
        <path class="cls-36" d="M1212.2,408.62v-151.72h37.29v151.72h-37.29Z"/>
        <path class="cls-36" d="M1280.17,408.62v-151.72h37.29v118.48h63.71v33.24h-101Z"/>
        <path class="cls-36" d="M1402.9,408.62v-151.72h37.29v118.48h63.71v33.24h-101Z"/>
      </g>
      <g>
        <path class="cls-36" d="M1531.4,306.77v-49.86h31.53v49.86h-31.53Z"/>
        <path class="cls-36" d="M1626.43,408.62c-25.36,0-35.58-18.11-35.58-33.88v-49.44h-10.44v-26.85h10.44v-32.82h34.94v32.82h18.11v26.85h-18.11v46.88c0,4.47,2.34,7.03,7.03,7.03h11.08v29.41h-17.47Z"/>
        <path class="cls-36" d="M1683.11,288.87c-11.72,0-21.31-9.59-21.31-21.31s9.59-21.31,21.31-21.31,21.31,9.59,21.31,21.31-9.59,21.31-21.31,21.31ZM1665.64,408.62v-110.17h34.94v110.17h-34.94Z"/>
        <path class="cls-36" d="M1761.52,408.62c-25.36,0-35.58-18.11-35.58-33.88v-117.84h34.94v115.28c0,4.47,2.34,7.03,7.03,7.03h12.14v29.41h-18.54Z"/>
      </g>
      <path class="cls-36" d="M1855.92,288.87c-11.72,0-21.31-9.59-21.31-21.31s9.59-21.31,21.31-21.31,21.31,9.59,21.31,21.31-9.59,21.31-21.31,21.31ZM1838.45,408.62v-110.17h34.94v110.17h-34.94Z"/>
      <path class="cls-36" d="M1898.75,306.77v-49.86h31.53v49.86h-31.53Z"/>
      <g>
        <path class="cls-36" d="M2073.25,408.62v-68.61c0-13.21-9.38-15.77-14.06-15.77s-14.06,2.56-14.06,15.77v68.61h-34.94v-68.61c0-13.21-9.38-15.77-14.06-15.77s-14.06,2.56-14.06,15.77v68.61h-34.94v-114.64h34.09v9.38c7.03-7.03,17.47-10.65,26.63-10.65,11.29,0,20.46,3.62,27.91,12.15,10.01-8.74,19.18-12.15,32.39-12.15,10.87,0,21.31,3.62,27.49,9.8,9.8,9.8,12.57,20.67,12.57,32.82v73.3h-34.94Z"/>
        <path class="cls-36" d="M2271.84,408.62h-30.47l-24.5-74.79-24.5,74.79h-30.26l-41.76-151.72h38.99l19.82,80.12,24.5-80.12h26.42l24.5,80.12,19.82-80.12h38.99l-41.55,151.72Z"/>
        <path class="cls-36" d="M2328.74,408.62v-151.72h103.13v33.24h-65.84v25.36h56.25v33.24h-56.25v26.64h65.84v33.24h-103.13Z"/>
        <path class="cls-36" d="M2458.29,408.62v-151.72h37.29v118.48h63.71v33.24h-101Z"/>
      </g>
      <path class="cls-36" d="M2581.03,408.62v-151.72h37.29v118.48h63.71v33.24h-101Z"/>
    </g>
    <g class="cls-64">
      <path class="cls-42" d="M1232.98,487.18v-38.79l-13.36,28.27h-6.52l-13.69-28.27v38.79h-8.8v-58.02h8.8l16.95,36.1,16.62-36.1h8.8v58.02h-8.8Z"/>
      <g>
        <path class="cls-42" d="M1256.86,487.18v-58.02h37.07v7.9h-28.27v16.95h24.11v7.82h-24.11v17.44h28.27v7.9h-37.07Z"/>
        <path class="cls-42" d="M1341.34,481.72c-3.67,3.67-8.96,5.46-14.99,5.46h-20.37v-58.02h20.37c6.03,0,11.32,1.79,14.99,5.46,6.27,6.27,5.87,14.75,5.87,23.14s.41,17.68-5.87,23.96ZM1335.32,440.98c-2.44-2.69-5.7-3.91-9.86-3.91h-10.67v42.21h10.67c4.16,0,7.41-1.22,9.86-3.91,3.01-3.34,3.1-9.61,3.1-17.6s-.08-13.44-3.1-16.79Z"/>
        <path class="cls-42" d="M1360.25,487.18v-58.02h8.8v58.02h-8.8Z"/>
        <path class="cls-42" d="M1402.94,487.67c-6.03,0-11.24-2.2-15.23-6.19-5.7-5.7-5.62-12.14-5.62-23.3s-.08-17.6,5.62-23.3c3.99-3.99,9.21-6.19,15.23-6.19,7.25,0,11.89,2.61,16.21,6.84l-5.87,5.95c-3.01-3.01-5.54-4.89-10.35-4.89-3.42,0-6.52,1.3-8.55,3.5-2.85,3.1-3.42,6.44-3.42,18.09s.57,14.99,3.42,18.09c2.04,2.2,5.13,3.5,8.55,3.5,4.81,0,7.33-1.87,10.35-4.89l5.87,5.95c-4.32,4.24-8.96,6.84-16.21,6.84Z"/>
        <path class="cls-42" d="M1463.31,487.18l-3.99-11.65h-22.89l-3.99,11.65h-9.37l21.26-58.02h7.09l21.26,58.02h-9.37ZM1448.07,442.29l-9.04,25.75h17.84l-8.8-25.75Z"/>
        <path class="cls-42" d="M1480.91,487.18v-58.02h8.8v50.11h27.94v7.9h-36.74Z"/>
        <path class="cls-42" d="M1584.7,487.18l-4.72-5.7c-2.53,2.2-7.25,6.19-16.05,6.19-12.06,0-18.74-6.76-18.74-17.27,0-8.07,5.78-12.63,11.49-16.38-2.61-3.01-6.03-7.09-6.03-12.47,0-7.42,5.54-12.87,14.17-12.87s13.77,5.54,13.77,12.96c0,4.56-2.53,7.74-6.19,10.27,0,0-2.85,1.96-4.24,2.93l12.22,14.58c2.12-3.01,3.01-6.36,3.1-11.65h7.98c-.24,7.42-1.87,13.28-5.78,17.84l9.7,11.57h-10.67ZM1561.24,459.23c-4.24,2.93-7.82,5.62-7.82,11,0,5.79,4.48,9.86,10.51,9.86,3.91,0,7.25-1.06,11.08-4.48l-13.77-16.38ZM1564.82,435.93c-3.58,0-5.7,2.44-5.7,5.7,0,2.36,1.55,4.56,4.48,7.99.9-.57,2.77-1.87,2.77-1.87,2.28-1.55,4.24-3.34,4.24-6.03,0-3.26-2.36-5.79-5.78-5.79Z"/>
      </g>
      <g>
        <path class="cls-42" d="M1668.62,487.18v-38.79l-13.36,28.27h-6.52l-13.69-28.27v38.79h-8.8v-58.02h8.8l16.95,36.1,16.62-36.1h8.8v58.02h-8.8Z"/>
        <path class="cls-42" d="M1692.49,487.18v-58.02h37.07v7.9h-28.27v16.95h24.11v7.82h-24.11v17.44h28.27v7.9h-37.07Z"/>
        <path class="cls-42" d="M1777.22,487.18l-26.8-40.82v40.82h-8.8v-58.02h8.07l26.8,40.74v-40.74h8.8v58.02h-8.06Z"/>
        <path class="cls-42" d="M1820.08,437.07v50.11h-8.8v-50.11h-15.97v-7.9h40.73v7.9h-15.97Z"/>
        <path class="cls-42" d="M1874.58,487.18l-3.99-11.65h-22.89l-3.99,11.65h-9.37l21.26-58.02h7.09l21.26,58.02h-9.37ZM1859.35,442.29l-9.04,25.75h17.84l-8.8-25.75Z"/>
        <path class="cls-42" d="M1892.18,487.18v-58.02h8.8v50.11h27.94v7.9h-36.74Z"/>
        <path class="cls-42" d="M1990.84,487.18v-25.34h-23.54v25.34h-8.8v-58.02h8.8v24.77h23.54v-24.77h8.8v58.02h-8.8Z"/>
        <path class="cls-42" d="M2014.8,487.18v-58.02h37.07v7.9h-28.27v16.95h24.11v7.82h-24.11v17.44h28.27v7.9h-37.07Z"/>
        <path class="cls-42" d="M2097.25,487.18l-3.99-11.65h-22.89l-3.99,11.65h-9.37l21.26-58.02h7.09l21.26,58.02h-9.37ZM2082.01,442.29l-9.04,25.75h17.84l-8.8-25.75Z"/>
        <path class="cls-42" d="M2114.85,487.18v-58.02h8.8v50.11h27.94v7.9h-36.74Z"/>
        <path class="cls-42" d="M2174.81,437.07v50.11h-8.8v-50.11h-15.97v-7.9h40.73v7.9h-15.97Z"/>
        <path class="cls-42" d="M2233.14,487.18v-25.34h-23.54v25.34h-8.8v-58.02h8.8v24.77h23.54v-24.77h8.8v58.02h-8.8Z"/>
        <path class="cls-42" d="M2275.83,487.67c-6.03,0-11.24-2.2-15.23-6.19-5.7-5.7-5.62-12.14-5.62-23.3s-.08-17.6,5.62-23.3c3.99-3.99,9.21-6.19,15.23-6.19,7.25,0,11.89,2.61,16.21,6.84l-5.87,5.95c-3.01-3.01-5.54-4.89-10.35-4.89-3.42,0-6.52,1.3-8.55,3.5-2.85,3.1-3.42,6.44-3.42,18.09s.57,14.99,3.42,18.09c2.04,2.2,5.13,3.5,8.55,3.5,4.81,0,7.33-1.87,10.35-4.89l5.87,5.95c-4.32,4.24-8.96,6.84-16.21,6.84Z"/>
        <path class="cls-42" d="M2336.29,487.18l-3.99-11.65h-22.89l-3.99,11.65h-9.37l21.26-58.02h7.09l21.26,58.02h-9.37ZM2321.05,442.29l-9.04,25.75h17.84l-8.8-25.75Z"/>
        <path class="cls-42" d="M2385.9,487.18l-12.22-24.44h-11v24.44h-8.8v-58.02h22.49c11,0,18,7.09,18,16.95,0,8.31-5.05,13.61-11.57,15.4l13.36,25.67h-10.26ZM2375.72,437.07h-13.03v18.17h13.03c5.87,0,9.86-3.34,9.86-9.04s-3.99-9.13-9.86-9.13Z"/>
        <path class="cls-42" d="M2407.25,487.18v-58.02h37.07v7.9h-28.27v16.95h24.11v7.82h-24.11v17.44h28.27v7.9h-37.07Z"/>
      </g>
    </g>
  </g>
  <g>
    <g class="cls-34">
      <g class="cls-54">
        <g class="cls-56">
          <path class="cls-61" d="M447.17,662.97S247.24,265.3,609.48,20.6c152.7,258.31,41.32,544.31-162.31,642.37"/>
        </g>
      </g>
      <g class="cls-54">
        <g class="cls-43">
          <path class="cls-61" d="M447.17,662.97S647.09,265.3,284.86,20.6c-152.7,258.31-41.32,544.31,162.31,642.37"/>
        </g>
      </g>
    </g>
    <g class="cls-13">
      <rect class="cls-62" x="-41.62" y="71.01" width="668.15" height="599.64" transform="translate(-127.14 587.58) rotate(-79.06)"/>
    </g>
    <g class="cls-38">
      <g class="cls-21">
        <g class="cls-40">
          <path class="cls-61" d="M456.27,567.9c2.3-137.22-36.81-385.65-329.29-489.21,0,0,246.09,144.25,329.29,489.21"/>
        </g>
      </g>
      <g class="cls-16">
        <g class="cls-24">
          <path class="cls-33" d="M447.17,662.97s3.04-14.17,5.62-38.19C121.63,484.39,126.98,78.69,126.98,78.69c-83.41,289.99,97.22,540.25,320.19,584.28"/>
        </g>
      </g>
      <g class="cls-31">
        <g class="cls-46">
          <path class="cls-33" d="M447.17,662.97s67.04-311.44-160.83-496.92c-69,129.61,43.75,403.06,160.83,496.92"/>
        </g>
      </g>
    </g>
    <g class="cls-10">
      <rect class="cls-35" x="302.05" y="36.75" width="599.66" height="668.16" transform="translate(-59.45 121.01) rotate(-10.94)"/>
    </g>
    <g class="cls-55">
      <g class="cls-66">
        <g class="cls-49">
          <path class="cls-61" d="M438.07,567.9c-2.3-137.22,36.81-385.65,329.29-489.21,0,0-246.09,144.25-329.29,489.21"/>
        </g>
      </g>
      <g class="cls-57">
        <g class="cls-15">
          <path class="cls-33" d="M447.17,662.97s-3.04-14.17-5.62-38.19C772.71,484.39,767.36,78.69,767.36,78.69c83.41,289.99-97.22,540.25-320.19,584.28"/>
        </g>
      </g>
      <g class="cls-9">
        <g class="cls-22">
          <path class="cls-33" d="M447.17,662.97s-67.04-311.44,160.83-496.92c69,129.61-43.75,403.06-160.83,496.92"/>
        </g>
      </g>
      <g class="cls-54">
        <g class="cls-44">
          <path class="cls-61" d="M447.17,662.97s64.38-370.06,432.93-353.84c-26.33,251.85-245.6,389.73-432.93,353.84"/>
        </g>
      </g>
    </g>
    <g class="cls-23">
      <g class="cls-4">
        <g class="cls-30">
          <g class="cls-58">
            <rect class="cls-50" x="394.66" y="381.04" width="470.87" height="438.97" transform="translate(-218.57 407.08) rotate(-30.78)"/>
          </g>
        </g>
      </g>
    </g>
    <g class="cls-48">
      <g class="cls-54">
        <g class="cls-8">
          <path class="cls-61" d="M447.17,662.97S382.79,292.91,14.24,309.13c26.33,251.85,245.6,389.73,432.93,353.84"/>
        </g>
      </g>
    </g>
    <g class="cls-52">
      <g class="cls-65">
        <g class="cls-11">
          <g class="cls-1">
            <rect class="cls-18" x="195.41" y="130.6" width="500.15" height="567.82"/>
          </g>
        </g>
      </g>
    </g>
    <g class="cls-28">
      <rect class="cls-29" x="312.62" y="95.15" width="271.02" height="354.41"/>
    </g>
    <g class="cls-27">
      <g class="cls-4">
        <g class="cls-59">
          <g class="cls-2">
            <rect class="cls-51" x="38.8" y="367.58" width="438.97" height="470.88" transform="translate(-391.97 516.29) rotate(-59.22)"/>
          </g>
        </g>
      </g>
    </g>
    <rect class="cls-25" x="-89.32" y="-119.23" width="2504.03" height="973.79"/>
    <rect class="cls-25" x="-89.32" y="-119.23" width="2504.03" height="973.79"/>
    <rect class="cls-25" x="-89.32" y="-119.23" width="2504.03" height="973.79"/>
  </g>
</svg>