<svg version="1.1" xmlns="http://www.w3.org/2000/svg" xmlns:xlink="http://www.w3.org/1999/xlink" x="0px" y="0px" viewBox="0 0 475 103.7" enable-background="new 0 0 475 103.7" xml:space="preserve" id="dhLogoSVG">
							<g>
								<path d="M447.4,86.7c5.5,0,5.9-4.9,5.9-8.7l-0.2-42.5c-0.9-2.3-2.6-2.8-4.2-2.8c-1.3,0-2.3-0.1-3.4,0.8
									c-3,2.4-3.7,5.6-4.4,8.5c-1,4.3-1.9,8.4-1.9,10.8v17.2C439.3,72.5,440.7,86.7,447.4,86.7z M427.5,89.9
									c-3.4-6.8-4.6-14.3-5.1-21.1l0.2-8.7c1.4-14.9,2.6-15.3,5.5-22.3c0.5-1.3,2.5-3.8,3.2-4.9c3.6-5.2,8.8-7.3,13.3-7.3
									c3.8,0,7,2.2,7.7,2.2c1.4,0,1-3,1-3.5l-0.4-11.7c0-1.2-2-2.7-3-2.9c-1.3-0.3-5.8-0.2-5.8-2.2c0-0.9,1.3-1.7,2.2-1.9
									c6.8-1.9,20-5.3,20.5-5.3c0.4,0,1.3,0.6,1.3,1V38l0.5,40.5c0.1,0.8,0.1,5.5,2.1,5.5h3.4c0.5,0.3,1,1.7,1,1.7c0,0.4-0.2,1.6-0.9,2
									c-3.1,1.9-16,8.2-16.9,8.2c-3.1,0-1.6-5.9-3.4-5.9c-0.9,0-4.3,3.8-4.7,4.1c-2.8,1.8-6.4,3.1-9.6,3.1c-2,0-4.6-1.3-6.2-1.9
									C431.7,94.5,428.3,91.6,427.5,89.9z"></path>
								<path d="M374.9,78.9l0.2-21.1c0-0.2,0-1.7-0.8-1.7c-1,0-5.4,4-5.6,4.4c-3.7,4.8-7.1,11-7.1,16.3
									c0,2,1.7,8.1,5.9,8.1C370.2,84.9,373.8,82.3,374.9,78.9z M396,91.9c3.3,0,4.6-1.3,5-4.8l-0.9-72.7c-0.1-1.3-0.8-3.9-3-4.6
									c-0.9-0.2-2-0.2-3.1-0.5c-0.9-0.2-1.5-1-1.5-1.5c0-2.6,4.3-3,6.5-3.4c7.3-1.1,14.6-2.3,15.1-2.3c0.4,0,0.9,0,1.3,0.4
									c0.2,7.6,0.3,13,0.5,17.9c0,0.4,0,3.3-0.1,3.6c-0.1,0.3,0,40.8,0.1,41.2c0.1,0.3,0.1,9.7,0.2,10.3l-0.2,7.4c0,1.9,0.6,7.6,1.6,8
									c0.6,0.2,1.2,1,1.7,1.2c0.9,0.3,4.2,0.6,4.4,2.2c0.1,1,0.1,1.6-1.7,1.8l-42.3,0.2c-0.7-0.3-1.6-0.1-2.2-0.9
									c-0.6-0.9-0.8-1.8-1.1-2.7c0-0.1,0.3-4.1-1-4.1c-0.5,0-1.9,2.1-2.9,3c-1.1,1-2.8,2.1-4.2,3c-2.5,1.6-5.8,2.1-8.4,2.1
									c-2.6,0-3.9-0.4-6.6-1.7c-5.6-2.7-6.9-10.4-6.9-14.5c0-13.2,12.6-23.2,27.2-30.5c0.3-0.1,1.2-1.1,1.2-1.5l0.2-12.1
									c0-2.6,0-7.3-4.3-7.3c-2.4,0-7.2,1.7-8.4,4.4c-0.3,0.7,0.1,1.9,0.1,2.3c0,4.1-1.7,12.2-8.6,12.2c-4.7,0-7.2-2.6-7.2-6.9
									c0-1.5,0.2-2.9,1.1-4.5c0.6-1.1,2.3-2.8,2.3-4c0-1.4-1.3-1.4-1.6-1.4c-1.1,0-3.4,2-4.6,2.9c-4,3.1-7.1,12.7-7.1,17.1v36.1
									c0,0.5,0.3,1.6,0.8,2.5c0.4,0.8,1.6,1.4,2.4,1.7c0.5,0.2,3.4,0.6,3.7,2.4c0.2,1.6-1.3,2.2-2.3,2.2h-22.8
									c-1.9,0.2-2.5-2.1-2.5-2.2c0.7-2.4,2.5-1.9,3.5-2.6c0.8-0.5,1.7-0.8,2.1-1.5c0.3-0.6,0.4-2.3,0.6-3.2L322,38
									c-0.2-0.7,0-1.6-0.2-2.3c-1-2.7-5.9-0.6-5.9-3.4c0-1.4,1.9-2,2.8-2.2c5-1.4,14.9-4.5,15.3-4.5h2.5c0.4,0.4,0.6,0.8,0.6,1.3
									l-0.5,5.5c0,0.4,0.2,0.7,0.3,1h0.5c5.2-6.1,9-8.5,14.2-8.5c0.5,0,2.4,0,3.4,0.2c1.4,0.3,3.6,2.7,5.1,2.7c1.7,0,8.1-4,16.1-4
									c3.4,0,7.8,0.8,11.2,3.7c2.3,2,2.4,5.5,2.8,7.8l0.4,50.8C390.6,89.7,391.8,91.9,396,91.9z"></path>
								<path d="M304,49.7c0-0.5,0.2-0.7-0.2-3.6l-0.3-5.3c-0.1-0.5-0.3-3-1-5.4c-0.7-2.4-1.9-4.6-4-4.6
									c-0.9,0-1.3,0-2,0.9c-0.5,0.6-0.7,1.5-1,2.2c-1.8,3.9-3.3,8.7-3.5,12.6c-0.2,2.2-0.2,3-0.2,3.4c0,2.8,2.5,2.4,4.4,2.4l5.8-0.2
									C303.4,52.3,304,50.3,304,49.7z M276.6,73.9v-17c0-0.5,0.9-5,1.4-7.6c2.5-12,9.8-24,21.7-24c11.8,0,15.5,12.6,16.6,22.4
									c0.3,2.9,0.2,4.2,0.2,4.6c0,1.8,0,7.2-3.2,7.2h-20.7c-1.2,0-1.2,1.7-1.2,1.9c0,0.4,0.2,2.3,0.4,5.6c0.1,1.5,2.1,19.7,10.9,19.7
									c7.8,0,7-10.8,11.1-10.8c1.1,0,1.8,1,1.8,1.7c0,1.2-1.5,5.6-1.6,6c-0.4,1.2-1,2.8-1.7,4c-5.1,8.6-11.5,10.1-17.7,10.1
									c-9.8,0-16.2-10.5-17.4-21C277,75.8,276.6,74.3,276.6,73.9z"></path>
								<path d="M217.1,8.9c-0.3-0.2-0.6-0.9-0.6-1.4c0-1.7,1.5-2.5,3.2-2.5h21.6c1.2,0,3.2,1.4,3.2,2.3
									c0,1.9-3.4,2.6-4.3,3.9c-0.4,0.7-0.6,1.6-0.8,2.3L239,41.2c0,1.4,0.7,1.8,1.7,1.8h11.8c1.2,0,1.6-0.7,1.6-1.9l0.4-26.1
									c0-0.5,0.1-2.4-0.6-3.5c-0.8-1.2-6.4-2.1-6.4-4.2c0-0.9,1.4-2.3,2.1-2.3H276c1.5,0,2.6,1.7,2.6,2.3c0,0.5-0.1,1-0.4,1.2
									c-1.7,1.5-3.7,1-5.4,2.2c-1.4,1.1-1.6,2.4-1.8,3.7l-0.4,72.7c0.1,1.6,1.4,3.4,3.2,4c0.7,0.2,1.7,0.5,2.4,0.8
									c0.4,0.2,0.8,1,0.8,1.5c0,1.5-1.9,2.4-3.2,2.4h-22.3c-1.2,0-2.5-1.1-2.5-2c0-0.4,0.2-1.3,0.4-1.5c0.9-0.8,2.9-1.3,3.8-2.7
									c1-1.5,0.8-3.5,1.1-5.2l-0.2-33.3c0.4-1.1-0.4-1.6-1.2-1.3h-12.6c-0.4-0.4-1.6,0.6-1.2,1.4v33.4l0.9,5c0.5,1.4,2.5,1.7,3.3,2.1
									c1.1,0.4,2.4,0.8,2.4,2c0,1-1.4,2.2-2.1,2.2h-26.6c-0.4,0-1.6-0.7-2.2-1.3c-0.1-0.1-0.3-0.5-0.3-1c0-0.5,0.2-1.4,0.8-1.7
									c1.3-0.8,3.2-0.8,4.7-1.7c1.4-0.9,1.8-2.4,1.9-3.6l0.4-72.7C223,10.8,218.4,9.7,217.1,8.9z"></path>
								<path d="M86.9,78.6l0.2-22.2c-0.2-0.2-0.3-0.4-0.7-0.4c-1.1,0-6.8,6.2-7.1,6.7c-1,1.5-2.3,3.2-2.9,4.9
									c-1.5,4.4-1.7,4.6-1.7,8.1c0,2.4,0.5,8.7,5.5,8.7C82.7,84.4,86.4,81.3,86.9,78.6z M74.1,96.3c-9.6,0-14.5-6.6-14.5-15.2
									c0-0.4,0-1.3,0.2-3.8C60.8,66,75.1,56.1,81.4,52.5c0.2-0.1,6.6-2.6,6.6-4.6l-0.4-15.2C87.4,30,85.9,29,83.8,29
									c-1.1,0-2.7,0.6-4.1,1.3c-3.3,1.6-2.8,6.6-2.8,8.7c0,5-4,9.3-8.5,9.3c-3.4,0-5.9-2.1-5.9-5.7c0-4.1,3.3-8.5,8.2-12.3
									C77.4,25,82.9,24,88.7,24c3.2,0,6.3,0.3,9.3,1.7c2,0.9,4.9,6.5,4.9,8.2V87c0,1.7,1.1,4.7,2.8,4.9c0.7,0.1,2,0.2,2.4,0.2
									c2.7,0,4.7-1.1,5-4.4l-0.4-52.5c-0.2-0.9-0.6-1.9-1-2.9c-0.9-2.5-6.2-0.9-6.2-3.4c0-1.4,1.3-1.7,2.2-1.9c6.1-1.6,18.1-4,18.6-4
									c0.7,0,2.5,0.7,2.1,1.7l-0.4,61.7c0.4,4.9,2,5.5,4.5,5.5c3.1,0,4.7-0.9,4.7-5.3l-0.5-71.5c-0.1-1.3-0.3-2.5-1.1-3.7
									c-1.4-2-3.9-1.3-5.5-2c-0.4-0.2-0.8-0.7-0.8-1.2c0-1.1,1.3-2,2.4-2.3c5.9-1.4,17.7-3.7,18.1-3.7c0.7,0,1.8,0.1,1.8,1.2
									c0,0.1,0,0.2,0,0.3v84.8c0.1,1,3.1,2.4,4,2.4c2,0,2.4-5.9,8-5.9c4.1,0,7.5,2.7,7.5,6.8c0,0.4-0.7,2.3-0.7,2.8
									c0,0.4,0.4,0.9,0.9,0.9c2.7,0,4.3-6.6,4.3-7.1c0-0.4-5.1-18.6-8-27.9c-2.8-9.1-4.8-18.8-8.6-27.9c-0.9-2.2-3.6-2.2-4.9-2.7
									c-0.4-0.2-1-1-1-1.5c0-1.2,1.7-2.1,2.5-2.1H179c1.5,0,3.4,0.1,3.4,2c0,2.5-5.8,1-5.8,5.5c0,0.4,1,3,1.4,4.7
									c2,7.9,3.7,15.8,6.7,23.7h0.5c2-2.9,9.1-22.5,9.1-28.8c0-3.8-5.9-3.1-5.9-5.5c0-0.7,1.1-1.6,1.9-1.5l17.1-0.2c1,0,4,0.1,4,1.9
									c0,0.5,0.1,1.2-1.1,1.6c-2.2,0.8-6.5,1.7-7.5,5.4c-0.8,3-2.4,6.2-3.6,9.2c-6.3,16.4-12.8,32.9-19.2,49.3c-0.5,1.2-1.2,2.6-2,3.8
									c-2.8,4.5-7.4,6.2-10.9,6.2c-5.2,0-8.6-3.9-10.4-7.7l-62.4,0.2c-1.3-0.4-2.8-0.2-3.8-1c-2.4-1.9-0.9-6.8-2.6-6.8
									C86.4,88.4,82.2,96.3,74.1,96.3z"></path>
								<path d="M128.3,12c0,5.8-3.8,9.5-9,9.5c-5.9,0-8.5-5.1-8.5-9.5c0-4.9,3.8-9.5,9.1-9.5C126,2.4,128.3,7.9,128.3,12
									z"></path>
								<path d="M59.4,51.2c-0.9,12-3.2,25.6-8.4,34.4c-4.2,7.1-13.8,10.8-19.8,10.6c-1.1,0-3.2,0.5-3.6,0.5H1.4
									c-0.9,0-1.4-1.8-1.4-2.1c0-2.4,4.1-2.5,4.7-2.7c1.8-0.4,3-3.1,3-4.3L7.6,13.4c-0.3-0.9-0.3-1.9-1.2-2.6C5,9.9,1.8,10,1.8,8.1
									c0-1.9,3.3-2.5,3.5-2.5L34.8,6c0.9,0.2,2,0.4,3.1,0.6C54,9.8,57.7,30.8,59.2,40.8L59.4,51.2z M42.1,64.4
									c0.2-5.6,0.5-11.2,0.5-14.6c-0.1-6.5,0.1-8-0.7-15.8c-0.7-7.1-2-22.6-13.2-22.6c-1.4,0-4.6-0.1-4.4,2.3L23.9,88
									c0.4,2.7,2.6,2.4,4.5,2.4c0.5,0,3,0.1,4.1-0.4c7.7-4,8-12.4,8.7-18.2C41.6,69.3,42,66.7,42.1,64.4z"></path>
							</g>
						</svg>
