<svg xmlns="http://www.w3.org/2000/svg" xmlns:xlink="http://www.w3.org/1999/xlink" version="1.1" id="Layer_1" x="0px" y="0px" style="enable-background:new 0 0 3000 3000;" xml:space="preserve" viewBox="41.3 625.8 2907.7 1727.3">
<style type="text/css">
	.st0{fill:#000000;}
	.st1{fill:#FFFFFF;}
</style>
<image style="display:none;overflow:visible;" width="250" height="150" xlink:href="E075B31F.png" transform="matrix(11.7496 0 0 11.7496 31.2941 618.7765)">
</image>
<path class="st0" d="M2841,2353.1H149.3c-59.7,0-108-48.4-108-108V733.8c0-59.7,48.4-108,108-108H2841c59.7,0,108,48.4,108,108  v1511.3C2949.1,2304.8,2900.7,2353.1,2841,2353.1z"/>
<path class="st1" d="M2805.6,2102.6c0,0-23.3-44.5-48.7-78.4c-25.4-33.9-44.5-84.7-55.1-120.7c-10.6-36-50.8-67.8-46.6-116.5  c4.2-48.7-6.4-237.4-50.8-287.1c-25.4-24.2-29.6-49.7-27.5-77.2c2.1-27.5-2.1-88.9-29.6-120.7c-27.5-31.8-46.6-74.1-42.4-173.7  c-44.5,0-67.8,0-67.8,0s-46.6-91.1-93.2-97.4c-46.6-6.4-74.1-10.6-86.8-33.9c-12.7-23.3-36-6.4-67.8,0c-31.8,6.4-42.3-2.7-59.3-11.9  c-16.9-9.3-61.4-5-74.1,20.4s-42.3,40.2-55.1,8.5c-12.7-31.8-50.8-29.7-74.1-44.5c-23.3-14.8-50.8-42.4-50.8-42.4H262.3v794.1H436  v-567.5h222.3v99.5c0,0,243.5-249.9,480.7-4.2c-95.3,63.5-271.1,419.3,61.4,656.5c0,46.6,0,46.6,0,46.6v6.4H959.8v-476.5  c0,0-17.6-124.9-134.1-127.1c-105.9,2.1-150.4,108-150.4,158.8c0,50.8,0,207.5,0,207.5h167.3v381.2H2805.6z M1357.2,1386.8  c158.8-65.6,247.8,69.9,247.8,69.9h256.2c-27.5-180-203.3-275.3-203.3-275.3v-31.8l230.8-2.1v78.3c0,0,0,0,14.8,0  c12.7-25.4,129.2-101.6,264.7-91.1c228.7,27.5,256.2,279.5,256.2,279.5v544.2h-243.5c0,0,0-402.4,0-438.4s-10.6-165.2-135.5-165.2  c-139.8,8.5-141.9,144.9-141.9,144.9v458.6h-245.7c0,0,0,0,0-29.7c177.9-88.9,203.3-249.9,203.3-249.9s-194.8-2.1-277.4-2.1  c-114.4,114.4-256.2,46.6-302.8-29.6C1232.2,1558.3,1268.2,1431.3,1357.2,1386.8z"/>
</svg>