<?xml version="1.0" standalone="no"?>
<!DOCTYPE svg PUBLIC "-//W3C//DTD SVG 20010904//EN"
 "http://www.w3.org/TR/2001/REC-SVG-20010904/DTD/svg10.dtd">
<svg xmlns="http://www.w3.org/2000/svg" version="1.0" width="350.000000pt" height="168.000000pt" viewBox="0 0 350.000000 168.000000" preserveAspectRatio="xMidYMid meet">

<g transform="translate(-250.000000,230.000000) scale(0.100000,-0.100000)" fill="#000000" stroke="none">

<path d="M3424 2229 c-94 -36 -146 -109 -146 -205 -1 -104 54 -163 193 -209 94 -32 122 -52 122 -88 0 -36 -18 -55 -60 -63 -46 -9 -109 11 -156 48 -21 16 -40 28 -41 27 -12 -15 -84 -116 -89 -126 -10 -16 76 -71 138 -88 157 -44 308 -10 370 84 14 21 30 62 36 92 27 129 -48 222 -220 273 -63 19 -91 40 -91 71 0 36 24 48 88 43 39 -3 69 -11 89 -26 17 -12 34 -22 37 -22 8 0 86 117 86 129 0 15 -60 47 -119 65 -74 22 -174 20 -237 -5z"/>
<path d="M2554 2226 c-3 -8 -4 -131 -2 -273 3 -247 4 -260 26 -306 48 -96 139 -140 292 -140 108 0 179 22 236 75 72 67 79 100 79 398 l0 255 -100 0 -100 0 -5 -240 c-5 -262 -10 -284 -66 -305 -52 -20 -121 -2 -140 37 -5 10 -11 128 -14 263 l-5 245 -98 3 c-78 2 -98 0 -103 -12z"/>
<path d="M4071 2222 c-5 -10 -32 -79 -59 -153 -53 -145 -186 -503 -197 -531 -7 -16 2 -18 97 -18 l104 0 15 48 15 47 138 0 139 0 14 -47 14 -48 104 0 c63 0 105 4 105 10 0 5 -11 38 -25 72 -13 35 -70 187 -126 338 -56 151 -106 281 -111 288 -7 8 -43 12 -114 12 -90 0 -105 -2 -113 -18z m160 -320 c16 -51 29 -99 29 -107 0 -12 -15 -15 -73 -15 -41 0 -76 2 -79 5 -3 3 10 53 28 110 19 58 34 115 34 128 0 38 14 41 24 5 5 -18 21 -75 37 -126z"/>
<path d="M3439 1380 c-227 -39 -358 -261 -289 -492 16 -56 70 -128 125 -170 70 -54 139 -73 255 -72 122 1 192 26 267 97 227 215 112 588 -197 637 -73 11 -95 11 -161 0z m167 -191 c99 -47 131 -205 62 -302 -41 -58 -149 -84 -221 -53 -39 16 -82 61 -96 99 -26 69 -3 187 45 228 61 52 139 63 210 28z"/>
<path d="M2550 1290 l0 -79 88 -3 87 -3 3 -272 2 -273 105 0 105 0 0 275 0 275 85 0 85 0 0 80 0 80 -280 0 -280 0 0 -80z"/>
<path d="M3990 1015 l0 -357 203 4 c198 3 203 4 264 32 128 59 193 167 193 321 0 114 -26 183 -94 251 -85 85 -131 98 -368 102 l-198 4 0 -357z m356 170 c68 -34 94 -80 94 -169 0 -125 -59 -189 -174 -190 -34 -1 -62 2 -63 7 -2 4 -3 90 -3 192 l0 185 48 0 c31 0 66 -9 98 -25z"/>
<path d="M4862 1288 c-37 -101 -218 -586 -227 -610 -7 -16 2 -18 97 -18 l104 0 15 48 15 47 136 3 136 3 17 -51 17 -50 104 0 c99 0 105 1 99 19 -3 11 -61 169 -129 353 l-124 333 -115 3 -115 3 -30 -83z m183 -230 c19 -65 35 -122 35 -128 0 -6 -33 -10 -81 -10 -68 0 -80 2 -75 15 3 9 20 64 37 123 41 139 41 139 45 127 2 -5 19 -63 39 -127z"/>
<path d="M5250 1362 c0 -4 4 -12 9 -17 5 -6 64 -104 130 -219 l121 -209 0 -128 0 -129 110 0 110 0 0 126 0 127 130 224 c72 123 130 226 130 229 0 3 -48 3 -107 2 l-108 -3 -63 -115 c-34 -63 -66 -128 -70 -145 -10 -36 -24 -35 -34 2 -4 16 -36 80 -70 143 l-63 115 -112 3 c-62 1 -113 -1 -113 -6z"/>
</g>
</svg>